<svg id="Layer_1" data-name="Layer 1" xmlns="http://www.w3.org/2000/svg" viewBox="0 0 2039.81 505.48"><defs><style>.cls-1,.cls-12,.cls-14,.cls-6{fill:#fff;}.cls-1{opacity:0.54;}.cls-10,.cls-11,.cls-13,.cls-2,.cls-3,.cls-4,.cls-8,.cls-9{fill:none;}.cls-2{stroke:#cceaff;}.cls-10,.cls-12,.cls-13,.cls-14,.cls-2,.cls-4,.cls-8,.cls-9{stroke-miterlimit:10;}.cls-11,.cls-3,.cls-4{stroke:#f48024;}.cls-11,.cls-12,.cls-13,.cls-14,.cls-3,.cls-8,.cls-9{stroke-linecap:round;}.cls-11,.cls-3{stroke-linejoin:round;}.cls-10,.cls-13,.cls-14,.cls-3,.cls-4{stroke-width:0.75px;}.cls-5{fill:#f48024;}.cls-7{fill:#cceaff;}.cls-8{stroke:#fff;}.cls-10,.cls-12,.cls-13,.cls-14,.cls-9{stroke:#4c8dbd;}.cls-11{stroke-width:0.92px;}.cls-12{stroke-width:1.01px;}</style></defs><title>pattern_1</title><path class="cls-1" d="M407-132.48H-110.6A371.24,371.24,0,0,0-135.6,373H432A371.24,371.24,0,0,0,407-132.48Z" transform="translate(859.95 132.48)"/><path class="cls-2" d="M794.78,233.52a28.11,28.11,0,0,1,28.22,28H794.78v-28Z" transform="translate(859.95 132.48)"/><path class="cls-2" d="M822.77,261.51a28.06,28.06,0,0,1-28,28v-28h28Z" transform="translate(859.95 132.48)"/><path class="cls-2" d="M795,261.51a27.91,27.91,0,0,1-28-28h28v28Z" transform="translate(859.95 132.48)"/><path class="cls-2" d="M-661-10.35a27.91,27.91,0,0,0-28,28h28v-28Z" transform="translate(859.95 132.48)"/><path class="cls-2" d="M-661,17.64a27.91,27.91,0,0,0,28-28h-28v28Z" transform="translate(859.95 132.48)"/><path class="cls-2" d="M1094.21,55.77a27.91,27.91,0,0,0-28,28h28v-28Z" transform="translate(859.95 132.48)"/><path class="cls-2" d="M1094,83.76a27.91,27.91,0,0,0,28-28h-28v28Z" transform="translate(859.95 132.48)"/><path class="cls-2" d="M651-60.35a27.91,27.91,0,0,0-28,28h28v-28Z" transform="translate(859.95 132.48)"/><path class="cls-2" d="M651-32.36a27.91,27.91,0,0,0,28-28H651v28Z" transform="translate(859.95 132.48)"/><path class="cls-2" d="M-532.28,252.24a27.91,27.91,0,0,0-28,28h28v-28Z" transform="translate(859.95 132.48)"/><path class="cls-2" d="M922.52,56.95a27.91,27.91,0,0,0-28,28h28v-28Z" transform="translate(859.95 132.48)"/><path class="cls-2" d="M-472-68.21a27.91,27.91,0,0,0-28,28h28v-28Z" transform="translate(859.95 132.48)"/><path class="cls-2" d="M-532.28,280.23a27.91,27.91,0,0,0,28-28h-28v28Z" transform="translate(859.95 132.48)"/><path class="cls-2" d="M1019.2,149.77a27.91,27.91,0,0,0,28-28h-28v28Z" transform="translate(859.95 132.48)"/><path class="cls-2" d="M1049.16-4a27.91,27.91,0,0,0-28,28h28V-4Z" transform="translate(859.95 132.48)"/><path class="cls-2" d="M1048.93,24a27.91,27.91,0,0,0,28-28h-28V24Z" transform="translate(859.95 132.48)"/><path class="cls-2" d="M-653.89,135.94a27.91,27.91,0,0,0-28,28h28v-28Z" transform="translate(859.95 132.48)"/><path class="cls-2" d="M-654.13,163.93a27.91,27.91,0,0,0,28-28h-28v28Z" transform="translate(859.95 132.48)"/><path class="cls-2" d="M-503.16,162.76h54.57V135.94h-28a26,26,0,0,0-18.82,8A26.71,26.71,0,0,0-503.16,162.76Z" transform="translate(859.95 132.48)"/><path class="cls-2" d="M776.85,84.78h54.57V58.2h-28A26.91,26.91,0,0,0,776.85,84.78Z" transform="translate(859.95 132.48)"/><path class="cls-2" d="M542.09,263.16h0A26.9,26.9,0,0,0,515.51,290h82.55a26.9,26.9,0,0,0,26.58-26.81H542.09Z" transform="translate(859.95 132.48)"/><path class="cls-2" d="M-659.29,252.24h0a26.9,26.9,0,0,0-26.58,26.81h82.55a26.9,26.9,0,0,0,26.58-26.81h-82.55Z" transform="translate(859.95 132.48)"/><path class="cls-2" d="M-694.08-9.15h-54.57V17.67h28a26,26,0,0,0,18.82-8A26.71,26.71,0,0,0-694.08-9.15Z" transform="translate(859.95 132.48)"/><path class="cls-2" d="M-378.56-10.35h-81.38V16.46h54.8a26,26,0,0,0,18.82-8A25.75,25.75,0,0,0-378.56-10.35Z" transform="translate(859.95 132.48)"/><path class="cls-2" d="M-521.27,135.94h-81.38v26.81h54.8a26,26,0,0,0,18.82-8A25.75,25.75,0,0,0-521.27,135.94Z" transform="translate(859.95 132.48)"/><path class="cls-2" d="M751.22,202.24H669.84v26.81h54.8a26,26,0,0,0,18.82-8A26.3,26.3,0,0,0,751.22,202.24Z" transform="translate(859.95 132.48)"/><path class="cls-2" d="M1053.76,56.95H945.57V83.76h81.61a26,26,0,0,0,18.82-8A26.71,26.71,0,0,0,1053.76,56.95Z" transform="translate(859.95 132.48)"/><path class="cls-2" d="M-366,252.24H-474.19v26.81h81.61a26,26,0,0,0,18.82-8A24.18,24.18,0,0,0-366,252.24Z" transform="translate(859.95 132.48)"/><path class="cls-2" d="M-354,195.21h-54.57V222h28a26,26,0,0,0,18.82-8A26.71,26.71,0,0,0-354,195.21Z" transform="translate(859.95 132.48)"/><path class="cls-2" d="M-534.18,222H-426V195.21h-81.61a26,26,0,0,0-18.82,8A26.71,26.71,0,0,0-534.18,222Z" transform="translate(859.95 132.48)"/><path class="cls-2" d="M-859.45,163.93h161.82V137.12H-832.88a26,26,0,0,0-18.82,8A26.71,26.71,0,0,0-859.45,163.93Z" transform="translate(859.95 132.48)"/><path class="cls-2" d="M693.21-33.54h54.57V-60.35h-28a26,26,0,0,0-18.82,8A26.71,26.71,0,0,0,693.21-33.54Z" transform="translate(859.95 132.48)"/><path class="cls-2" d="M871.78-60.35H763.59v26.81H845.2A26.75,26.75,0,0,0,871.78-60.35Z" transform="translate(859.95 132.48)"/><path class="cls-2" d="M1179.36,122.37H1058.54v26.81h94.24A26.9,26.9,0,0,0,1179.36,122.37Z" transform="translate(859.95 132.48)"/><path class="cls-2" d="M867.06-4.73h0a26.9,26.9,0,0,0-26.58,26.81H976.67a26.9,26.9,0,0,0,26.58-26.81H867.06Z" transform="translate(859.95 132.48)"/><path class="cls-2" d="M-643.55-67h0a26.9,26.9,0,0,0-26.58,26.81h136.41A26.9,26.9,0,0,0-507.13-67H-643.55Z" transform="translate(859.95 132.48)"/><circle class="cls-2" cx="444.76" cy="281.83" r="13.41"/><path class="cls-2" d="M697.42,288.56H752V261.75H724a26,26,0,0,0-18.82,8A27.75,27.75,0,0,0,697.42,288.56Z" transform="translate(859.95 132.48)"/><circle class="cls-2" cx="1516.91" cy="408.11" r="13.41"/><circle class="cls-2" cx="539" cy="135.54" r="13.41"/><circle class="cls-2" cx="500.19" cy="135.54" r="13.41"/><circle class="cls-2" cx="1665.16" cy="141.86" r="13.41"/><circle class="cls-2" cx="1728.21" cy="202.83" r="13.41"/><circle class="cls-2" cx="528.29" cy="398.13" r="13.41"/><circle class="cls-2" cx="567.34" cy="398.13" r="13.41"/><circle class="cls-2" cx="1456.88" cy="348.13" r="13.41"/><circle class="cls-2" cx="1495.92" cy="348.13" r="13.41"/><path class="cls-2" d="M-676.13-67.74h-81.38v26.81h54.8a26,26,0,0,0,18.82-8A26.71,26.71,0,0,0-676.13-67.74Z" transform="translate(859.95 132.48)"/><circle class="cls-2" cx="29.53" cy="78.15" r="13.41"/><circle class="cls-2" cx="68.58" cy="78.15" r="13.41"/><circle class="cls-2" cx="1613.89" cy="279.26" r="13.41"/><circle class="cls-2" cx="1652.93" cy="279.26" r="13.41"/><circle class="cls-2" cx="291.19" cy="341.1" r="13.41"/><path class="cls-2" d="M-431.69,37.21a27.91,27.91,0,0,1,28,28h-28v-28Z" transform="translate(859.95 132.48)"/><path class="cls-2" d="M-403.7,65.2a27.91,27.91,0,0,1-28,28v-28h28Z" transform="translate(859.95 132.48)"/><path class="cls-2" d="M-431.69,65.2a27.91,27.91,0,0,1-28-28h28v28Z" transform="translate(859.95 132.48)"/><path class="cls-2" d="M732.08,54.28a27.91,27.91,0,0,0-28,28h28v-28h0Z" transform="translate(859.95 132.48)"/><path class="cls-2" d="M732.08,82.27a27.91,27.91,0,0,0,28-28h-28v28Z" transform="translate(859.95 132.48)"/><path class="cls-2" d="M688.86-2.14h0a26.9,26.9,0,0,0-26.58,26.81h82.55A26.9,26.9,0,0,0,771.42-2.14H688.86Z" transform="translate(859.95 132.48)"/><circle class="cls-2" cx="1760.89" cy="82.25" r="13.41"/><circle class="cls-2" cx="1799.93" cy="82.25" r="13.41"/><polygon class="cls-3" points="1906.82 417.62 1913.39 405.17 1919.97 417.62 1906.82 417.62"/><path class="cls-4" d="M-686.89,61.59A45.25,45.25,0,0,1-680.48,67a45.25,45.25,0,0,1,5.41,6.41A45.22,45.22,0,0,1-669.65,67a45.22,45.22,0,0,1,6.41-5.41,45.25,45.25,0,0,1-6.41-5.41,45.21,45.21,0,0,1-5.41-6.41,45.25,45.25,0,0,1-5.41,6.41A45.22,45.22,0,0,1-686.89,61.59Z" transform="translate(859.95 132.48)"/><path class="cls-5" d="M-658.06,70.2a26.72,26.72,0,0,1,3.79,3.2,26.72,26.72,0,0,1,3.2,3.79,26.7,26.7,0,0,1,3.2-3.79,26.7,26.7,0,0,1,3.79-3.2,26.72,26.72,0,0,1-3.79-3.2,26.7,26.7,0,0,1-3.2-3.79,26.72,26.72,0,0,1-3.2,3.79A26.7,26.7,0,0,1-658.06,70.2Z" transform="translate(859.95 132.48)"/><circle class="cls-6" cx="305.44" cy="179.48" r="66.36"/><polygon class="cls-7" points="327.48 164.19 232.85 164.19 232.85 242.63 255.91 219.57 327.48 219.57 327.48 164.19"/><line class="cls-8" x1="265.3" y1="180.9" x2="244.41" y2="180.9"/><line class="cls-8" x1="269.79" y1="190.14" x2="244.41" y2="190.14"/><line class="cls-8" x1="263.87" y1="199.77" x2="244.41" y2="199.77"/><polygon class="cls-6" points="281.35 127.25 375.98 127.25 375.98 214.95 352.91 191.88 281.35 191.88 281.35 127.25"/><line class="cls-9" x1="346.81" y1="156.9" x2="311.86" y2="156.9"/><line class="cls-9" x1="351.55" y1="164.54" x2="307.07" y2="164.54"/><line class="cls-9" x1="345.3" y1="172.04" x2="313.31" y2="172.04"/><rect class="cls-5" x="295.16" y="143.63" width="66.94" height="5.2"/><polygon class="cls-10" points="281.35 127.25 375.98 127.25 375.98 214.95 352.91 191.88 281.35 191.88 281.35 127.25"/><line class="cls-3" x1="176.58" y1="365.1" x2="176.58" y2="344.53"/><line class="cls-3" x1="166.3" y1="354.82" x2="186.87" y2="354.82"/><line class="cls-3" x1="176.58" y1="365.1" x2="176.58" y2="344.53"/><circle class="cls-6" cx="1767.26" cy="323.89" r="81.39"/><line class="cls-11" x1="1857.99" y1="300.71" x2="1857.99" y2="309.45"/><line class="cls-11" x1="1857.99" y1="335.73" x2="1857.99" y2="344.47"/><line class="cls-11" x1="1879.87" y1="322.59" x2="1871.13" y2="322.59"/><line class="cls-11" x1="1844.86" y1="322.59" x2="1836.12" y2="322.59"/><line class="cls-11" x1="1873.46" y1="307.12" x2="1867.28" y2="313.3"/><line class="cls-11" x1="1848.7" y1="331.88" x2="1842.52" y2="338.06"/><line class="cls-11" x1="1873.46" y1="338.06" x2="1867.28" y2="331.88"/><line class="cls-11" x1="1848.7" y1="313.3" x2="1842.52" y2="307.12"/><line class="cls-11" x1="1687.17" y1="245.05" x2="1687.17" y2="249.54"/><line class="cls-11" x1="1687.17" y1="263.05" x2="1687.17" y2="267.54"/><line class="cls-11" x1="1698.42" y1="256.29" x2="1693.92" y2="256.29"/><line class="cls-11" x1="1680.41" y1="256.29" x2="1675.92" y2="256.29"/><line class="cls-11" x1="1695.12" y1="248.34" x2="1691.95" y2="251.52"/><line class="cls-11" x1="1682.39" y1="261.07" x2="1679.22" y2="264.25"/><line class="cls-11" x1="1695.12" y1="264.25" x2="1691.95" y2="261.07"/><line class="cls-11" x1="1682.39" y1="251.52" x2="1679.22" y2="248.34"/><circle class="cls-7" cx="1768.26" cy="323.63" r="57.08"/><path class="cls-12" d="M939.8,181.31L921.1,200l-32.48-32.48-36,36c0.13,0.61.27,1.22,0.42,1.83a57.11,57.11,0,0,0,110.64-.23Z" transform="translate(859.95 132.48)"/><path class="cls-13" d="M933.91,140.12a57.09,57.09,0,1,1-63,7.91" transform="translate(859.95 132.48)"/><polyline class="cls-14" points="1809.6 361.03 1748.58 300.01 1713.15 335.44"/><polyline class="cls-14" points="1782.04 331.5 1799.75 313.79 1823.37 337.41"/><rect class="cls-5" x="1748.58" y="256.71" width="29.53" height="19.68"/><line class="cls-14" x1="1748.58" y1="300.01" x2="1748.58" y2="256.71"/><path class="cls-14" d="M933.89,228.55a45,45,0,0,1-25.59,7.87A45.5,45.5,0,0,1,865,204.93" transform="translate(859.95 132.48)"/><line class="cls-12" x1="1748.58" y1="309.85" x2="1748.58" y2="313.79"/><line class="cls-14" x1="1748.58" y1="317.73" x2="1748.58" y2="321.66"/><line class="cls-14" x1="1748.58" y1="325.6" x2="1748.58" y2="329.54"/></svg>